<svg xmlns="http://www.w3.org/2000/svg" width="520" height="520" viewBox="0 0 520 520">
<defs>

  <radialGradient id="glow_teal" cx="50%" cy="50%" r="50%">
    <stop offset="0%" stop-color="#00d4aa" stop-opacity="0.25"/>
    <stop offset="100%" stop-color="#00d4aa" stop-opacity="0"/>
  </radialGradient>
  <radialGradient id="glow_bg" cx="50%" cy="50%" r="50%">
    <stop offset="0%" stop-color="#07080d" stop-opacity="0.0"/>
    <stop offset="100%" stop-color="#07080d" stop-opacity="0.5"/>
  </radialGradient>
  <style>
    @keyframes rotateGlobe {
      from { transform: rotateY(0deg); }
      to   { transform: rotateY(360deg); }
    }
    @keyframes rotateGlobe2 {
      from { transform: rotateY(0deg) rotateX(15deg); }
      to   { transform: rotateY(-360deg) rotateX(15deg); }
    }
    @keyframes floatUp {
      0%,100% { transform: translateY(0px); }
      50%      { transform: translateY(-8px); }
    }
    @keyframes pulseDot {
      0%,100% { opacity:0.9; }
      50%      { opacity:0.4; }
    }
    .globe-wrap {
      transform-origin: 260px 260px;
      transform-style: preserve-3d;
      animation: floatUp 6s ease-in-out infinite;
    }
    .ring-a { transform-origin: 260px 260px; animation: rotateGlobe  22s linear infinite; }
    .ring-b { transform-origin: 260px 260px; animation: rotateGlobe2 18s linear infinite reverse; }
    .ring-c { transform-origin: 260px 260px; animation: rotateGlobe  30s linear infinite; }
    .dot-pulse { animation: pulseDot 3s ease-in-out infinite; }
  </style>

</defs>
<rect width="520" height="520" fill="#07080d" rx="16"/>
<ellipse cx="260" cy="260" rx="260.0" ry="260.0" fill="url(#glow_teal)"/>
<g class="globe-wrap">
<g class="ring-a">
  <circle cx="254.8" cy="269.9" r="1.25" fill="#00d4aa" opacity="0.15"/>
  <circle cx="281.3" cy="283.5" r="1.98" fill="#a78bfa" opacity="0.15"/>
  <circle cx="313.8" cy="263.4" r="1.01" fill="#60a5fa" opacity="0.15"/>
  <circle cx="304.0" cy="226.5" r="1.79" fill="#f97316" opacity="0.15"/>
  <circle cx="247.3" cy="208.8" r="1.83" fill="#00d4aa" opacity="0.15"/>
  <circle cx="187.1" cy="233.3" r="1.92" fill="#a78bfa" opacity="0.15"/>
  <circle cx="178.8" cy="286.4" r="1.14" fill="#60a5fa" opacity="0.15"/>
  <circle cx="239.1" cy="325.6" r="1.86" fill="#f97316" opacity="0.15"/>
  <circle cx="325.6" cy="314.7" r="1.79" fill="#00d4aa" opacity="0.15"/>
  <circle cx="367.5" cy="256.7" r="1.9" fill="#a78bfa" opacity="0.15"/>
  <circle cx="324.7" cy="195.3" r="2.08" fill="#60a5fa" opacity="0.15"/>
  <circle cx="224.5" cy="181.5" r="1.38" fill="#f97316" opacity="0.15"/>
  <circle cx="145.1" cy="230.8" r="0.97" fill="#00d4aa" opacity="0.15"/>
  <circle cx="153.4" cy="307.7" r="2.09" fill="#a78bfa" opacity="0.15"/>
  <circle cx="248.9" cy="351.1" r="2.1" fill="#60a5fa" opacity="0.15"/>
  <circle cx="359.4" cy="323.4" r="1.06" fill="#f97316" opacity="0.15"/>
  <circle cx="396.0" cy="242.9" r="1.63" fill="#00d4aa" opacity="0.15"/>
  <circle cx="325.0" cy="171.9" r="0.97" fill="#a78bfa" opacity="0.15"/>
  <circle cx="198.2" cy="168.1" r="1.66" fill="#60a5fa" opacity="0.15"/>
  <circle cx="115.2" cy="238.0" r="1.8" fill="#f97316" opacity="0.15"/>
  <circle cx="144.6" cy="328.4" r="1.29" fill="#00d4aa" opacity="0.15"/>
  <circle cx="267.5" cy="367.8" r="2.14" fill="#a78bfa" opacity="0.15"/>
  <circle cx="389.0" cy="322.5" r="1.29" fill="#60a5fa" opacity="0.16"/>
  <circle cx="411.9" cy="225.8" r="1.97" fill="#f97316" opacity="0.17"/>
  <circle cx="314.5" cy="153.1" r="1.74" fill="#00d4aa" opacity="0.18"/>
  <circle cx="170.7" cy="163.3" r="1.12" fill="#a78bfa" opacity="0.18"/>
  <circle cx="93.7" cy="250.6" r="1.38" fill="#60a5fa" opacity="0.19"/>
  <circle cx="146.7" cy="347.8" r="1.93" fill="#f97316" opacity="0.2"/>
  <circle cx="291.0" cy="377.8" r="2.02" fill="#00d4aa" opacity="0.21"/>
  <circle cx="414.3" cy="315.1" r="1.51" fill="#a78bfa" opacity="0.21"/>
  <circle cx="418.1" cy="207.2" r="2.41" fill="#60a5fa" opacity="0.22"/>
  <circle cx="296.8" cy="138.8" r="1.07" fill="#f97316" opacity="0.23"/>
  <circle cx="143.8" cy="164.9" r="1.69" fill="#00d4aa" opacity="0.23"/>
  <circle cx="79.8" cy="266.7" r="1.47" fill="#a78bfa" opacity="0.24"/>
  <circle cx="157.1" cy="365.1" r="1.61" fill="#60a5fa" opacity="0.25"/>
  <circle cx="317.0" cy="382.1" r="1.31" fill="#f97316" opacity="0.26"/>
  <circle cx="434.5" cy="303.0" r="1.94" fill="#00d4aa" opacity="0.26"/>
  <circle cx="416.0" cy="188.7" r="1.97" fill="#a78bfa" opacity="0.27"/>
  <circle cx="274.2" cy="129.0" r="1.19" fill="#60a5fa" opacity="0.28"/>
  <circle cx="119.2" cy="171.9" r="2.0" fill="#f97316" opacity="0.29"/>
  <circle cx="73.3" cy="284.8" r="2.62" fill="#00d4aa" opacity="0.29"/>
  <circle cx="174.0" cy="379.5" r="1.86" fill="#a78bfa" opacity="0.3"/>
  <circle cx="343.5" cy="381.1" r="2.29" fill="#60a5fa" opacity="0.31"/>
  <circle cx="449.1" cy="287.4" r="2.69" fill="#f97316" opacity="0.31"/>
  <circle cx="406.8" cy="171.2" r="2.27" fill="#00d4aa" opacity="0.32"/>
  <circle cx="248.7" cy="123.8" r="2.7" fill="#a78bfa" opacity="0.33"/>
  <circle cx="98.1" cy="183.2" r="2.41" fill="#60a5fa" opacity="0.34"/>
  <circle cx="73.7" cy="303.3" r="1.72" fill="#f97316" opacity="0.34"/>
  <circle cx="195.6" cy="390.3" r="1.44" fill="#00d4aa" opacity="0.35"/>
  <circle cx="368.8" cy="375.4" r="2.57" fill="#a78bfa" opacity="0.36"/>
  <circle cx="457.5" cy="269.8" r="2.57" fill="#60a5fa" opacity="0.37"/>
  <circle cx="391.6" cy="156.0" r="2.07" fill="#f97316" opacity="0.37"/>
  <circle cx="222.0" cy="123.3" r="2.76" fill="#00d4aa" opacity="0.38"/>
  <circle cx="81.7" cy="197.8" r="1.86" fill="#a78bfa" opacity="0.39"/>
  <circle cx="80.8" cy="321.3" r="1.55" fill="#60a5fa" opacity="0.39"/>
  <circle cx="220.4" cy="397.0" r="1.85" fill="#f97316" opacity="0.4"/>
  <circle cx="391.4" cy="365.4" r="2.36" fill="#00d4aa" opacity="0.41"/>
  <circle cx="459.6" cy="251.2" r="1.91" fill="#a78bfa" opacity="0.42"/>
  <circle cx="371.4" cy="143.7" r="1.48" fill="#60a5fa" opacity="0.42"/>
  <circle cx="196.0" cy="127.4" r="2.02" fill="#f97316" opacity="0.43"/>
  <circle cx="70.8" cy="214.9" r="1.39" fill="#00d4aa" opacity="0.44"/>
  <circle cx="93.8" cy="337.6" r="1.6" fill="#a78bfa" opacity="0.45"/>
  <circle cx="246.9" cy="399.4" r="2.88" fill="#60a5fa" opacity="0.45"/>
  <circle cx="409.9" cy="352.0" r="1.29" fill="#f97316" opacity="0.46"/>
  <circle cx="455.2" cy="232.8" r="2.3" fill="#00d4aa" opacity="0.47"/>
  <circle cx="347.7" cy="135.2" r="1.4" fill="#a78bfa" opacity="0.47"/>
  <circle cx="172.1" cy="135.7" r="2.45" fill="#60a5fa" opacity="0.48"/>
  <circle cx="66.0" cy="233.2" r="1.58" fill="#f97316" opacity="0.49"/>
  <circle cx="112.1" cy="351.2" r="1.61" fill="#00d4aa" opacity="0.5"/>
  <circle cx="273.4" cy="397.2" r="1.72" fill="#a78bfa" opacity="0.5"/>
  <circle cx="423.2" cy="335.8" r="1.46" fill="#60a5fa" opacity="0.51"/>
  <circle cx="444.5" cy="215.7" r="1.35" fill="#f97316" opacity="0.52"/>
  <circle cx="321.8" cy="131.0" r="3.13" fill="#00d4aa" opacity="0.53"/>
  <circle cx="151.9" cy="147.7" r="1.85" fill="#a78bfa" opacity="0.53"/>
  <circle cx="67.9" cy="251.8" r="3.13" fill="#60a5fa" opacity="0.54"/>
  <circle cx="134.5" cy="361.2" r="1.23" fill="#f97316" opacity="0.55"/>
  <circle cx="298.2" cy="390.6" r="2.35" fill="#00d4aa" opacity="0.55"/>
  <circle cx="430.3" cy="317.9" r="2.51" fill="#a78bfa" opacity="0.56"/>
  <circle cx="428.2" cy="201.0" r="3.07" fill="#60a5fa" opacity="0.57"/>
  <circle cx="295.2" cy="131.6" r="2.31" fill="#f97316" opacity="0.58"/>
  <circle cx="136.7" cy="163.0" r="3.28" fill="#00d4aa" opacity="0.58"/>
  <circle cx="76.4" cy="269.4" r="1.51" fill="#a78bfa" opacity="0.59"/>
  <circle cx="159.8" cy="366.8" r="2.42" fill="#60a5fa" opacity="0.6"/>
  <circle cx="319.6" cy="379.6" r="1.31" fill="#f97316" opacity="0.61"/>
  <circle cx="430.3" cy="299.3" r="2.43" fill="#00d4aa" opacity="0.61"/>
  <circle cx="406.8" cy="190.0" r="1.43" fill="#a78bfa" opacity="0.62"/>
  <circle cx="269.8" cy="137.2" r="2.67" fill="#60a5fa" opacity="0.63"/>
  <circle cx="128.2" cy="180.7" r="1.51" fill="#f97316" opacity="0.64"/>
  <circle cx="91.8" cy="284.7" r="1.8" fill="#00d4aa" opacity="0.64"/>
  <circle cx="186.5" cy="367.1" r="2.61" fill="#a78bfa" opacity="0.65"/>
  <circle cx="335.8" cy="364.6" r="1.88" fill="#60a5fa" opacity="0.66"/>
  <circle cx="422.5" cy="281.3" r="3.37" fill="#f97316" opacity="0.66"/>
  <circle cx="381.2" cy="183.8" r="2.05" fill="#00d4aa" opacity="0.67"/>
  <circle cx="247.5" cy="148.0" r="1.82" fill="#a78bfa" opacity="0.68"/>
  <circle cx="127.7" cy="199.8" r="1.43" fill="#60a5fa" opacity="0.69"/>
  <circle cx="113.8" cy="296.2" r="3.27" fill="#f97316" opacity="0.69"/>
  <circle cx="213.0" cy="361.4" r="2.83" fill="#00d4aa" opacity="0.7"/>
  <circle cx="344.6" cy="346.0" r="1.75" fill="#a78bfa" opacity="0.71"/>
  <circle cx="405.9" cy="265.2" r="2.78" fill="#60a5fa" opacity="0.72"/>
  <circle cx="352.6" cy="183.9" r="2.0" fill="#f97316" opacity="0.72"/>
  <circle cx="230.7" cy="164.6" r="2.24" fill="#00d4aa" opacity="0.73"/>
  <circle cx="137.3" cy="219.3" r="1.64" fill="#a78bfa" opacity="0.74"/>
  <circle cx="142.6" cy="302.2" r="2.09" fill="#60a5fa" opacity="0.74"/>
  <circle cx="237.1" cy="348.1" r="3.07" fill="#f97316" opacity="0.75"/>
  <circle cx="343.1" cy="324.1" r="2.88" fill="#00d4aa" opacity="0.76"/>
  <circle cx="378.8" cy="253.1" r="2.33" fill="#a78bfa" opacity="0.77"/>
  <circle cx="321.9" cy="192.6" r="3.17" fill="#60a5fa" opacity="0.77"/>
  <circle cx="223.0" cy="187.9" r="3.47" fill="#f97316" opacity="0.78"/>
  <circle cx="161.0" cy="237.9" r="2.26" fill="#00d4aa" opacity="0.79"/>
  <circle cx="179.5" cy="299.2" r="2.28" fill="#a78bfa" opacity="0.8"/>
  <circle cx="255.8" cy="324.2" r="1.47" fill="#60a5fa" opacity="0.8"/>
  <circle cx="324.8" cy="298.2" r="2.0" fill="#f97316" opacity="0.81"/>
  <circle cx="335.2" cy="248.4" r="1.96" fill="#00d4aa" opacity="0.82"/>
  <circle cx="288.9" cy="216.7" r="2.02" fill="#a78bfa" opacity="0.82"/>
  <circle cx="233.3" cy="224.0" r="1.7" fill="#60a5fa" opacity="0.83"/>
  <circle cx="215.6" cy="254.5" r="3.32" fill="#f97316" opacity="0.84"/>
  <circle cx="240.7" cy="272.4" r="1.56" fill="#00d4aa" opacity="0.85"/>
</g>
<g class="ring-b">
  <circle cx="283.2" cy="251.6" r="1.56" fill="#f97316" opacity="0.14"/>
  <circle cx="268.0" cy="229.0" r="1.85" fill="#00d4aa" opacity="0.14"/>
  <circle cx="221.0" cy="230.0" r="0.8" fill="#a78bfa" opacity="0.14"/>
  <circle cx="192.0" cy="264.1" r="1.17" fill="#60a5fa" opacity="0.14"/>
  <circle cx="218.5" cy="305.4" r="1.07" fill="#f97316" opacity="0.14"/>
  <circle cx="288.9" cy="315.8" r="0.93" fill="#00d4aa" opacity="0.14"/>
  <circle cx="347.5" cy="279.4" r="1.86" fill="#a78bfa" opacity="0.14"/>
  <circle cx="340.4" cy="220.6" r="2.04" fill="#60a5fa" opacity="0.14"/>
  <circle cx="264.6" cy="187.3" r="0.84" fill="#f97316" opacity="0.14"/>
  <circle cx="176.2" cy="210.8" r="2.13" fill="#00d4aa" opacity="0.14"/>
  <circle cx="148.3" cy="277.4" r="1.03" fill="#a78bfa" opacity="0.14"/>
  <circle cx="209.7" cy="335.7" r="2.04" fill="#60a5fa" opacity="0.14"/>
  <circle cx="317.3" cy="336.8" r="1.18" fill="#f97316" opacity="0.14"/>
  <circle cx="386.0" cy="275.4" r="2.04" fill="#00d4aa" opacity="0.14"/>
  <circle cx="357.1" cy="197.4" r="1.28" fill="#a78bfa" opacity="0.14"/>
  <circle cx="247.8" cy="165.3" r="1.67" fill="#60a5fa" opacity="0.14"/>
  <circle cx="142.2" cy="207.8" r="2.15" fill="#f97316" opacity="0.14"/>
  <circle cx="126.0" cy="294.5" r="0.88" fill="#00d4aa" opacity="0.14"/>
  <circle cx="216.6" cy="357.7" r="1.94" fill="#a78bfa" opacity="0.14"/>
  <circle cx="346.1" cy="345.3" r="2.0" fill="#60a5fa" opacity="0.14"/>
  <circle cx="412.1" cy="264.2" r="1.5" fill="#f97316" opacity="0.14"/>
  <circle cx="359.1" cy="176.5" r="2.23" fill="#00d4aa" opacity="0.14"/>
  <circle cx="225.0" cy="152.3" r="1.84" fill="#a78bfa" opacity="0.15"/>
  <circle cx="114.2" cy="213.1" r="1.81" fill="#60a5fa" opacity="0.15"/>
  <circle cx="116.0" cy="313.3" r="1.07" fill="#f97316" opacity="0.16"/>
  <circle cx="232.4" cy="374.1" r="2.34" fill="#00d4aa" opacity="0.17"/>
  <circle cx="374.1" cy="345.9" r="2.17" fill="#a78bfa" opacity="0.17"/>
  <circle cx="429.0" cy="248.8" r="2.45" fill="#60a5fa" opacity="0.18"/>
  <circle cx="351.2" cy="158.0" r="2.23" fill="#f97316" opacity="0.19"/>
  <circle cx="199.2" cy="146.0" r="2.32" fill="#00d4aa" opacity="0.19"/>
  <circle cx="91.9" cy="224.0" r="1.36" fill="#a78bfa" opacity="0.2"/>
  <circle cx="115.5" cy="332.2" r="2.53" fill="#60a5fa" opacity="0.21"/>
  <circle cx="253.9" cy="385.4" r="1.07" fill="#f97316" opacity="0.21"/>
  <circle cx="399.8" cy="340.5" r="1.45" fill="#00d4aa" opacity="0.22"/>
  <circle cx="437.8" cy="231.1" r="1.36" fill="#a78bfa" opacity="0.23"/>
  <circle cx="336.0" cy="142.7" r="2.5" fill="#60a5fa" opacity="0.23"/>
  <circle cx="172.5" cy="145.5" r="1.67" fill="#f97316" opacity="0.24"/>
  <circle cx="75.7" cy="238.8" r="1.4" fill="#00d4aa" opacity="0.25"/>
  <circle cx="122.9" cy="350.1" r="1.39" fill="#a78bfa" opacity="0.25"/>
  <circle cx="278.8" cy="391.8" r="1.31" fill="#60a5fa" opacity="0.26"/>
  <circle cx="421.9" cy="330.2" r="1.28" fill="#f97316" opacity="0.27"/>
  <circle cx="439.1" cy="212.5" r="2.01" fill="#00d4aa" opacity="0.27"/>
  <circle cx="315.4" cy="131.0" r="1.95" fill="#a78bfa" opacity="0.28"/>
  <circle cx="146.9" cy="150.2" r="1.54" fill="#60a5fa" opacity="0.29"/>
  <circle cx="65.8" cy="256.0" r="2.0" fill="#f97316" opacity="0.29"/>
  <circle cx="136.8" cy="365.9" r="1.78" fill="#00d4aa" opacity="0.3"/>
  <circle cx="305.3" cy="393.4" r="1.51" fill="#a78bfa" opacity="0.3"/>
  <circle cx="439.4" cy="316.2" r="1.16" fill="#60a5fa" opacity="0.31"/>
  <circle cx="433.4" cy="194.3" r="1.92" fill="#f97316" opacity="0.32"/>
  <circle cx="291.1" cy="123.3" r="2.72" fill="#00d4aa" opacity="0.32"/>
  <circle cx="123.7" cy="159.3" r="2.86" fill="#a78bfa" opacity="0.33"/>
  <circle cx="62.5" cy="274.5" r="2.63" fill="#60a5fa" opacity="0.34"/>
  <circle cx="156.1" cy="378.8" r="1.54" fill="#f97316" opacity="0.34"/>
  <circle cx="331.5" cy="390.2" r="1.91" fill="#00d4aa" opacity="0.35"/>
  <circle cx="451.4" cy="299.5" r="2.68" fill="#a78bfa" opacity="0.36"/>
  <circle cx="421.5" cy="177.7" r="1.29" fill="#60a5fa" opacity="0.36"/>
  <circle cx="264.9" cy="120.1" r="2.47" fill="#f97316" opacity="0.37"/>
  <circle cx="104.3" cy="172.1" r="1.92" fill="#00d4aa" opacity="0.38"/>
  <circle cx="65.6" cy="293.0" r="2.64" fill="#a78bfa" opacity="0.38"/>
  <circle cx="179.2" cy="388.0" r="2.21" fill="#60a5fa" opacity="0.39"/>
  <circle cx="356.0" cy="382.7" r="1.55" fill="#f97316" opacity="0.4"/>
  <circle cx="457.4" cy="281.3" r="1.28" fill="#00d4aa" opacity="0.4"/>
  <circle cx="404.1" cy="163.4" r="1.59" fill="#a78bfa" opacity="0.41"/>
  <circle cx="238.3" cy="121.4" r="1.58" fill="#60a5fa" opacity="0.42"/>
  <circle cx="89.9" cy="187.9" r="1.82" fill="#f97316" opacity="0.42"/>
  <circle cx="75.1" cy="310.5" r="2.18" fill="#00d4aa" opacity="0.43"/>
  <circle cx="204.9" cy="393.1" r="3.13" fill="#a78bfa" opacity="0.44"/>
  <circle cx="377.1" cy="371.3" r="2.62" fill="#60a5fa" opacity="0.44"/>
  <circle cx="456.9" cy="262.7" r="2.03" fill="#f97316" opacity="0.45"/>
  <circle cx="382.5" cy="152.6" r="2.29" fill="#00d4aa" opacity="0.46"/>
  <circle cx="212.9" cy="127.1" r="2.74" fill="#a78bfa" opacity="0.46"/>
  <circle cx="81.4" cy="205.5" r="2.19" fill="#60a5fa" opacity="0.47"/>
  <circle cx="90.3" cy="325.8" r="3.0" fill="#f97316" opacity="0.48"/>
  <circle cx="231.4" cy="393.7" r="2.92" fill="#00d4aa" opacity="0.48"/>
  <circle cx="393.5" cy="356.7" r="1.27" fill="#a78bfa" opacity="0.49"/>
  <circle cx="449.9" cy="244.7" r="2.33" fill="#60a5fa" opacity="0.5"/>
  <circle cx="357.7" cy="145.9" r="2.82" fill="#f97316" opacity="0.5"/>
  <circle cx="190.5" cy="137.1" r="2.58" fill="#00d4aa" opacity="0.51"/>
  <circle cx="79.5" cy="224.0" r="3.16" fill="#a78bfa" opacity="0.51"/>
  <circle cx="110.5" cy="337.9" r="1.81" fill="#60a5fa" opacity="0.52"/>
  <circle cx="257.3" cy="389.5" r="2.23" fill="#f97316" opacity="0.53"/>
  <circle cx="404.0" cy="339.7" r="2.63" fill="#00d4aa" opacity="0.53"/>
  <circle cx="436.5" cy="228.7" r="2.74" fill="#a78bfa" opacity="0.54"/>
  <circle cx="331.3" cy="144.0" r="3.13" fill="#60a5fa" opacity="0.55"/>
  <circle cx="172.6" cy="150.8" r="3.44" fill="#f97316" opacity="0.55"/>
  <circle cx="84.8" cy="242.3" r="2.21" fill="#00d4aa" opacity="0.56"/>
  <circle cx="134.7" cy="345.6" r="1.54" fill="#a78bfa" opacity="0.57"/>
  <circle cx="280.6" cy="380.4" r="2.43" fill="#60a5fa" opacity="0.57"/>
  <circle cx="407.3" cy="321.1" r="2.2" fill="#f97316" opacity="0.58"/>
  <circle cx="416.9" cy="215.9" r="1.91" fill="#00d4aa" opacity="0.59"/>
  <circle cx="304.9" cy="147.5" r="1.92" fill="#a78bfa" opacity="0.59"/>
  <circle cx="161.2" cy="167.9" r="2.22" fill="#60a5fa" opacity="0.6"/>
  <circle cx="97.9" cy="258.9" r="3.31" fill="#f97316" opacity="0.61"/>
  <circle cx="161.7" cy="348.0" r="1.95" fill="#00d4aa" opacity="0.61"/>
  <circle cx="299.3" cy="366.4" r="1.88" fill="#a78bfa" opacity="0.62"/>
  <circle cx="401.9" cy="302.1" r="2.92" fill="#60a5fa" opacity="0.63"/>
  <circle cx="391.6" cy="207.8" r="3.63" fill="#f97316" opacity="0.63"/>
  <circle cx="280.5" cy="157.2" r="3.05" fill="#00d4aa" opacity="0.64"/>
  <circle cx="158.2" cy="187.7" r="2.88" fill="#a78bfa" opacity="0.65"/>
  <circle cx="119.4" cy="272.3" r="1.87" fill="#60a5fa" opacity="0.65"/>
  <circle cx="190.1" cy="343.5" r="2.88" fill="#f97316" opacity="0.66"/>
  <circle cx="310.7" cy="347.2" r="1.95" fill="#00d4aa" opacity="0.67"/>
  <circle cx="386.0" cy="284.2" r="1.94" fill="#a78bfa" opacity="0.67"/>
  <circle cx="360.8" cy="206.4" r="2.78" fill="#60a5fa" opacity="0.68"/>
  <circle cx="260.6" cy="174.4" r="3.39" fill="#f97316" opacity="0.69"/>
  <circle cx="167.0" cy="209.6" r="3.74" fill="#00d4aa" opacity="0.69"/>
  <circle cx="150.9" cy="280.1" r="3.36" fill="#a78bfa" opacity="0.7"/>
  <circle cx="218.4" cy="329.5" r="1.67" fill="#60a5fa" opacity="0.7"/>
  <circle cx="310.7" cy="322.0" r="3.76" fill="#f97316" opacity="0.71"/>
  <circle cx="355.2" cy="269.0" r="3.15" fill="#00d4aa" opacity="0.72"/>
  <circle cx="323.4" cy="215.8" r="3.43" fill="#a78bfa" opacity="0.72"/>
  <circle cx="249.4" cy="202.9" r="2.8" fill="#60a5fa" opacity="0.73"/>
  <circle cx="195.8" cy="233.9" r="1.54" fill="#f97316" opacity="0.74"/>
  <circle cx="199.9" cy="277.4" r="1.55" fill="#00d4aa" opacity="0.74"/>
  <circle cx="246.0" cy="296.5" r="3.7" fill="#a78bfa" opacity="0.75"/>
  <circle cx="284.2" cy="282.1" r="2.05" fill="#60a5fa" opacity="0.76"/>
  <circle cx="275.1" cy="260.0" r="3.1" fill="#f97316" opacity="0.76"/>
</g>
<g class="ring-c">
  <circle cx="227.5" cy="253.8" r="1.11" fill="#60a5fa" opacity="0.12"/>
  <circle cx="220.4" cy="281.1" r="1.18" fill="#f97316" opacity="0.12"/>
  <circle cx="259.8" cy="303.1" r="1.06" fill="#00d4aa" opacity="0.12"/>
  <circle cx="316.5" cy="290.5" r="1.37" fill="#a78bfa" opacity="0.12"/>
  <circle cx="337.0" cy="245.7" r="1.9" fill="#60a5fa" opacity="0.12"/>
  <circle cx="293.5" cy="203.7" r="1.82" fill="#f97316" opacity="0.12"/>
  <circle cx="213.1" cy="203.0" r="1.94" fill="#00d4aa" opacity="0.12"/>
  <circle cx="160.8" cy="250.8" r="1.24" fill="#a78bfa" opacity="0.12"/>
  <circle cx="185.2" cy="312.4" r="1.99" fill="#60a5fa" opacity="0.12"/>
  <circle cx="274.5" cy="337.1" r="1.99" fill="#f97316" opacity="0.12"/>
  <circle cx="360.6" cy="300.6" r="1.67" fill="#00d4aa" opacity="0.12"/>
  <circle cx="371.5" cy="227.6" r="1.9" fill="#a78bfa" opacity="0.12"/>
  <circle cx="292.2" cy="175.3" r="1.12" fill="#60a5fa" opacity="0.12"/>
  <circle cx="181.1" cy="188.3" r="1.95" fill="#f97316" opacity="0.12"/>
  <circle cx="126.7" cy="260.2" r="1.02" fill="#00d4aa" opacity="0.12"/>
  <circle cx="176.9" cy="336.2" r="2.04" fill="#a78bfa" opacity="0.12"/>
  <circle cx="296.8" cy="355.0" r="2.12" fill="#60a5fa" opacity="0.12"/>
  <circle cx="393.2" cy="298.2" r="1.48" fill="#f97316" opacity="0.12"/>
  <circle cx="387.2" cy="208.1" r="1.25" fill="#00d4aa" opacity="0.12"/>
  <circle cx="279.0" cy="155.7" r="0.88" fill="#a78bfa" opacity="0.12"/>
  <circle cx="151.2" cy="184.5" r="1.02" fill="#60a5fa" opacity="0.12"/>
  <circle cx="105.4" cy="274.8" r="1.62" fill="#f97316" opacity="0.13"/>
  <circle cx="181.4" cy="356.5" r="1.2" fill="#00d4aa" opacity="0.13"/>
  <circle cx="322.6" cy="364.0" r="1.31" fill="#a78bfa" opacity="0.14"/>
  <circle cx="418.4" cy="289.0" r="1.08" fill="#60a5fa" opacity="0.14"/>
  <circle cx="391.1" cy="188.6" r="1.93" fill="#f97316" opacity="0.15"/>
  <circle cx="258.8" cy="142.2" r="0.93" fill="#00d4aa" opacity="0.16"/>
  <circle cx="124.0" cy="188.1" r="1.88" fill="#a78bfa" opacity="0.16"/>
  <circle cx="93.7" cy="292.2" r="1.18" fill="#60a5fa" opacity="0.17"/>
  <circle cx="194.6" cy="373.2" r="2.32" fill="#f97316" opacity="0.17"/>
  <circle cx="349.5" cy="366.4" r="1.29" fill="#00d4aa" opacity="0.18"/>
  <circle cx="436.9" cy="275.1" r="2.54" fill="#a78bfa" opacity="0.19"/>
  <circle cx="386.0" cy="170.1" r="2.17" fill="#60a5fa" opacity="0.19"/>
  <circle cx="234.5" cy="134.2" r="2.05" fill="#f97316" opacity="0.2"/>
  <circle cx="100.5" cy="197.1" r="2.14" fill="#00d4aa" opacity="0.2"/>
  <circle cx="90.3" cy="310.7" r="1.83" fill="#a78bfa" opacity="0.21"/>
  <circle cx="213.9" cy="386.1" r="2.01" fill="#60a5fa" opacity="0.21"/>
  <circle cx="375.7" cy="363.0" r="2.47" fill="#f97316" opacity="0.22"/>
  <circle cx="448.5" cy="258.4" r="2.12" fill="#00d4aa" opacity="0.23"/>
  <circle cx="373.6" cy="153.7" r="1.14" fill="#a78bfa" opacity="0.23"/>
  <circle cx="208.3" cy="131.5" r="2.45" fill="#60a5fa" opacity="0.24"/>
  <circle cx="81.8" cy="210.3" r="1.12" fill="#f97316" opacity="0.24"/>
  <circle cx="94.4" cy="329.1" r="2.02" fill="#00d4aa" opacity="0.25"/>
  <circle cx="237.4" cy="394.7" r="1.3" fill="#a78bfa" opacity="0.26"/>
  <circle cx="399.6" cy="354.9" r="2.76" fill="#60a5fa" opacity="0.26"/>
  <circle cx="453.3" cy="240.1" r="1.84" fill="#f97316" opacity="0.27"/>
  <circle cx="355.4" cy="140.1" r="2.78" fill="#00d4aa" opacity="0.27"/>
  <circle cx="181.9" cy="133.6" r="1.76" fill="#a78bfa" opacity="0.28"/>
  <circle cx="68.6" cy="226.4" r="1.36" fill="#60a5fa" opacity="0.28"/>
  <circle cx="105.0" cy="346.1" r="2.8" fill="#f97316" opacity="0.29"/>
  <circle cx="263.4" cy="398.8" r="1.17" fill="#00d4aa" opacity="0.3"/>
  <circle cx="419.8" cy="342.8" r="1.88" fill="#a78bfa" opacity="0.3"/>
  <circle cx="451.4" cy="221.5" r="1.6" fill="#60a5fa" opacity="0.31"/>
  <circle cx="333.0" cy="130.1" r="1.44" fill="#f97316" opacity="0.31"/>
  <circle cx="157.0" cy="140.3" r="1.73" fill="#00d4aa" opacity="0.32"/>
  <circle cx="61.4" cy="244.4" r="2.93" fill="#a78bfa" opacity="0.33"/>
  <circle cx="121.4" cy="360.9" r="1.98" fill="#60a5fa" opacity="0.33"/>
  <circle cx="290.0" cy="398.4" r="1.3" fill="#f97316" opacity="0.34"/>
  <circle cx="435.2" cy="327.5" r="2.6" fill="#00d4aa" opacity="0.34"/>
  <circle cx="443.1" cy="203.8" r="2.9" fill="#a78bfa" opacity="0.35"/>
  <circle cx="307.7" cy="124.2" r="2.41" fill="#60a5fa" opacity="0.35"/>
  <circle cx="135.1" cy="151.0" r="2.79" fill="#f97316" opacity="0.36"/>
  <circle cx="60.6" cy="263.0" r="2.37" fill="#00d4aa" opacity="0.37"/>
  <circle cx="142.3" cy="372.4" r="1.61" fill="#a78bfa" opacity="0.37"/>
  <circle cx="315.8" cy="393.5" r="1.6" fill="#60a5fa" opacity="0.38"/>
  <circle cx="444.9" cy="310.2" r="2.03" fill="#f97316" opacity="0.38"/>
  <circle cx="429.0" cy="188.0" r="1.79" fill="#00d4aa" opacity="0.39"/>
  <circle cx="281.1" cy="122.7" r="2.25" fill="#a78bfa" opacity="0.4"/>
  <circle cx="117.6" cy="165.0" r="2.93" fill="#60a5fa" opacity="0.4"/>
  <circle cx="66.3" cy="281.3" r="2.15" fill="#f97316" opacity="0.41"/>
  <circle cx="166.6" cy="380.1" r="2.73" fill="#00d4aa" opacity="0.41"/>
  <circle cx="339.0" cy="384.5" r="1.38" fill="#a78bfa" opacity="0.42"/>
  <circle cx="448.4" cy="291.7" r="1.34" fill="#60a5fa" opacity="0.42"/>
  <circle cx="409.8" cy="175.1" r="3.02" fill="#f97316" opacity="0.43"/>
  <circle cx="254.9" cy="125.8" r="1.9" fill="#00d4aa" opacity="0.44"/>
  <circle cx="105.5" cy="181.6" r="2.84" fill="#a78bfa" opacity="0.44"/>
  <circle cx="78.2" cy="297.9" r="1.56" fill="#60a5fa" opacity="0.45"/>
  <circle cx="192.8" cy="383.3" r="1.87" fill="#f97316" opacity="0.45"/>
  <circle cx="358.2" cy="371.6" r="1.63" fill="#00d4aa" opacity="0.46"/>
  <circle cx="445.0" cy="273.3" r="3.11" fill="#a78bfa" opacity="0.47"/>
  <circle cx="386.6" cy="166.0" r="2.19" fill="#60a5fa" opacity="0.47"/>
  <circle cx="230.8" cy="133.5" r="1.84" fill="#f97316" opacity="0.48"/>
  <circle cx="100.2" cy="199.8" r="2.82" fill="#00d4aa" opacity="0.48"/>
  <circle cx="96.0" cy="311.7" r="3.38" fill="#a78bfa" opacity="0.49"/>
  <circle cx="219.2" cy="381.4" r="2.12" fill="#60a5fa" opacity="0.49"/>
  <circle cx="371.7" cy="355.6" r="3.02" fill="#f97316" opacity="0.5"/>
  <circle cx="434.4" cy="256.1" r="1.41" fill="#00d4aa" opacity="0.51"/>
  <circle cx="360.6" cy="161.9" r="3.5" fill="#a78bfa" opacity="0.51"/>
  <circle cx="210.6" cy="145.8" r="3.3" fill="#60a5fa" opacity="0.52"/>
  <circle cx="102.5" cy="218.5" r="2.57" fill="#f97316" opacity="0.52"/>
  <circle cx="119.0" cy="321.4" r="2.35" fill="#00d4aa" opacity="0.53"/>
  <circle cx="244.1" cy="374.1" r="2.8" fill="#a78bfa" opacity="0.54"/>
  <circle cx="377.8" cy="337.1" r="3.46" fill="#60a5fa" opacity="0.54"/>
  <circle cx="416.5" cy="241.7" r="2.06" fill="#f97316" opacity="0.55"/>
  <circle cx="333.3" cy="163.6" r="3.12" fill="#00d4aa" opacity="0.55"/>
  <circle cx="196.4" cy="162.4" r="2.63" fill="#a78bfa" opacity="0.56"/>
  <circle cx="113.6" cy="236.4" r="2.24" fill="#60a5fa" opacity="0.56"/>
  <circle cx="146.5" cy="325.6" r="1.77" fill="#f97316" opacity="0.57"/>
  <circle cx="265.2" cy="360.7" r="3.55" fill="#00d4aa" opacity="0.58"/>
  <circle cx="374.6" cy="317.0" r="2.25" fill="#a78bfa" opacity="0.58"/>
  <circle cx="390.9" cy="231.7" r="2.05" fill="#60a5fa" opacity="0.59"/>
  <circle cx="306.3" cy="172.5" r="1.59" fill="#f97316" opacity="0.59"/>
  <circle cx="191.1" cy="183.4" r="1.52" fill="#00d4aa" opacity="0.6"/>
  <circle cx="135.4" cy="251.9" r="3.45" fill="#a78bfa" opacity="0.61"/>
  <circle cx="178.0" cy="322.1" r="2.73" fill="#60a5fa" opacity="0.61"/>
  <circle cx="279.7" cy="340.1" r="2.71" fill="#f97316" opacity="0.62"/>
  <circle cx="358.4" cy="296.2" r="2.88" fill="#00d4aa" opacity="0.62"/>
  <circle cx="356.1" cy="228.9" r="1.67" fill="#a78bfa" opacity="0.63"/>
  <circle cx="282.0" cy="191.6" r="1.83" fill="#60a5fa" opacity="0.63"/>
  <circle cx="199.8" cy="209.5" r="3.41" fill="#f97316" opacity="0.64"/>
  <circle cx="172.9" cy="262.5" r="2.9" fill="#00d4aa" opacity="0.65"/>
  <circle cx="214.2" cy="305.6" r="3.06" fill="#a78bfa" opacity="0.65"/>
  <circle cx="281.3" cy="307.6" r="2.72" fill="#60a5fa" opacity="0.66"/>
  <circle cx="317.8" cy="274.8" r="2.52" fill="#f97316" opacity="0.66"/>
  <circle cx="302.0" cy="241.3" r="3.17" fill="#00d4aa" opacity="0.67"/>
  <circle cx="262.9" cy="236.5" r="2.18" fill="#a78bfa" opacity="0.68"/>
</g>
</g>
<ellipse cx="260" cy="260" rx="260.0" ry="260.0" fill="url(#glow_bg)"/>
<circle cx="32" cy="32" r="5" fill="#f97316" opacity="0.9"/>
<text x="46" y="36.5" font-family="monospace" font-size="11" fill="#8b949e">AI/ML</text>
<circle cx="32" cy="56" r="5" fill="#00d4aa" opacity="0.9"/>
<text x="46" y="60.5" font-family="monospace" font-size="11" fill="#8b949e">Engineering</text>
<circle cx="32" cy="80" r="5" fill="#a78bfa" opacity="0.9"/>
<text x="46" y="84.5" font-family="monospace" font-size="11" fill="#8b949e">Security</text>
<circle cx="32" cy="104" r="5" fill="#60a5fa" opacity="0.9"/>
<text x="46" y="108.5" font-family="monospace" font-size="11" fill="#8b949e">Web</text>
<text x="380" y="32" font-family="monospace" font-size="22" font-weight="700" fill="#00d4aa" text-anchor="end">49</text>
<text x="386" y="32" font-family="monospace" font-size="11" fill="#8b949e">Repos</text>
<text x="380" y="72" font-family="monospace" font-size="22" font-weight="700" fill="#00d4aa" text-anchor="end">431</text>
<text x="386" y="72" font-family="monospace" font-size="11" fill="#8b949e">Commits</text>
<text x="370" y="112" font-family="monospace" font-size="22" font-weight="700" fill="#00d4aa" text-anchor="end">37</text>
<text x="376" y="112" font-family="monospace" font-size="11" fill="#8b949e">Longest Streak</text>
<rect x="20" y="445" width="480" height="50" rx="8" fill="#0d1117" stroke="#ffffff11" stroke-width="1"/>
<text x="60" y="468" font-family="monospace" font-size="16" font-weight="700" fill="#00d4aa" text-anchor="middle">4×</text>
<text x="60" y="484" font-family="monospace" font-size="9" fill="#4b5563" text-anchor="middle">CPU Speed</text>
<text x="175" y="468" font-family="monospace" font-size="16" font-weight="700" fill="#f97316" text-anchor="middle">94.8%</text>
<text x="175" y="484" font-family="monospace" font-size="9" fill="#4b5563" text-anchor="middle">Accuracy</text>
<text x="300" y="468" font-family="monospace" font-size="16" font-weight="700" fill="#00d4aa" text-anchor="middle">3</text>
<text x="300" y="484" font-family="monospace" font-size="9" fill="#4b5563" text-anchor="middle">Papers</text>
<text x="400" y="468" font-family="monospace" font-size="16" font-weight="700" fill="#00d4aa" text-anchor="middle"><3s</text>
<text x="400" y="484" font-family="monospace" font-size="9" fill="#4b5563" text-anchor="middle">Alert</text>
<text x="260" y="510" font-family="monospace" font-size="9" fill="#3d444d" text-anchor="middle">HOVER · DRAG TO ROTATE · CLICK FOR BURST</text>
</svg>
